<mxfile host="app.diagrams.net" modified="2024-04-19T11:52:47.990Z" agent="Mozilla/5.0 (Windows NT 10.0; Win64; x64) AppleWebKit/537.36 (KHTML, like Gecko) Chrome/123.0.0.0 Safari/537.36 Edg/123.0.0.0" version="24.2.5" etag="-fJUb7FL72msz_vPbrwh" type="github">
  <diagram name="Page-1" id="QsfW5mSmgHukWm4xADwr">
    <mxGraphModel>
      <root>
        <mxCell id="0" />
        <mxCell id="1" parent="0" />
      </root>
    </mxGraphModel>
  </diagram>
</mxfile>
